<?xml version="1.0" encoding="UTF-8" standalone="no"?><!DOCTYPE svg PUBLIC "-//W3C//DTD SVG 1.1//EN" "http://www.w3.org/Graphics/SVG/1.1/DTD/svg11.dtd"><svg width="100%" height="100%" viewBox="0 0 227 227" version="1.1" xmlns="http://www.w3.org/2000/svg" xmlns:xlink="http://www.w3.org/1999/xlink" xml:space="preserve" xmlns:serif="http://www.serif.com/" style="fill-rule:evenodd;clip-rule:evenodd;stroke-linejoin:round;stroke-miterlimit:2;"><g id="logo"><path d="M136.664,97.35c0,0.907 0.736,1.642 1.641,1.642c0.907,0 1.642,-0.735 1.642,-1.642c0,-0.593 -0.317,-1.107 -0.789,-1.397c1.318,-0.009 2.67,0.772 3.419,3.502c0,0 0.141,-2.843 -1.846,-3.806c-2.446,-1.185 -3.327,0.435 -4.73,-0.422c-1.402,-0.857 -0.981,-2.316 -0.981,-2.316c0,0 -1.013,1.169 -0.624,2.493c0.39,1.325 1.17,2.103 1.17,2.103c0,0 0.507,-0.443 1.26,-0.858c-0.1,0.214 -0.162,0.45 -0.162,0.701" style="fill-rule:nonzero;"/><path d="M88.705,115.084c0,0.571 -0.462,1.032 -1.032,1.032c-0.571,0 -1.033,-0.461 -1.033,-1.032c0,-0.373 0.199,-0.697 0.496,-0.879c-0.829,-0.006 -1.68,0.486 -2.15,2.204c0,0 -0.089,-1.789 1.161,-2.395c1.539,-0.746 2.093,0.274 2.975,-0.266c0.882,-0.539 0.618,-1.456 0.618,-1.456c0,0 0.637,0.735 0.391,1.567c-0.245,0.833 -0.735,1.324 -0.735,1.324c0,0 -0.32,-0.28 -0.793,-0.54c0.063,0.135 0.102,0.283 0.102,0.441" style="fill-rule:nonzero;"/><path d="M139.918,91.22c2.409,0.271 4.518,2.259 4.518,2.259c0,0 -1.713,-3.043 -4.183,-3.285c-2.469,-0.241 -4.101,1.689 -4.101,1.689c0,0 1.356,-0.933 3.766,-0.663" style="fill-rule:nonzero;"/><path d="M143.682,106.884c-0.21,0.632 1.267,0.753 1.267,0.753c-0.484,-0.573 -1.055,-1.385 -1.267,-0.753" style="fill-rule:nonzero;"/><path d="M141.03,115.767c2.346,1.368 2.296,-1.454 2.296,-1.454c0,0 -1.224,0.919 -2.22,-0.076c-0.736,-0.736 -1.22,-1.973 -1.422,-2.569c2.772,0.901 4.339,1.135 4.56,1.65c0,0 1.685,-1.76 -0.535,-2.219c-2.219,-0.459 -3.291,-0.23 -5.281,-0.612c-1.991,-0.384 -2.373,-1.761 -2.373,-1.761c0,0 0.245,1.442 2.376,2.462c0.246,0.937 1.083,3.695 2.599,4.579" style="fill-rule:nonzero;"/><path d="M134.854,59.046l-0.035,-0.012l0.035,0.012Z" style="fill-rule:nonzero;"/><path d="M142.81,59.692c3.666,-0.941 5.827,-4.7 5.827,-4.7c0,0 -2.726,3.289 -7.614,3.947c-4.468,0.602 -5.948,0.183 -6.169,0.107c0.398,0.141 4.472,1.539 7.956,0.646" style="fill-rule:nonzero;"/><path d="M142.439,65.84c4.134,-0.216 5.721,-3.977 5.721,-3.977c0,0 -2.069,2.82 -6.486,3.102c-4.417,0.282 -7.909,-0.571 -7.909,-0.571c0,0 2.951,1.747 8.674,1.446" style="fill-rule:nonzero;"/><path d="M142.318,71.682c4.12,-0.39 5.482,-4.104 5.482,-4.104c0,0 -2.068,2.82 -6.487,3.103c-4.417,0.282 -8.392,-0.685 -8.392,-0.685c0,0 3.611,2.235 9.397,1.686" style="fill-rule:nonzero;"/><path d="M141.681,77.066c4.133,-0.26 5.721,-3.977 5.721,-3.977c0,0 -2.068,2.82 -6.485,3.103c-4.419,0.281 -8.659,-0.775 -8.659,-0.775c0,0 3.073,2.047 9.423,1.649" style="fill-rule:nonzero;"/><path d="M144.005,52.828c3.131,-1.085 3.433,-3.674 3.433,-3.674c0,0 -1.385,2.289 -5.06,3.193c-3.182,0.782 -4.999,0.421 -4.999,0.421c0,0 3.494,1.145 6.626,0.06" style="fill-rule:nonzero;"/><path d="M89.12,110.468c0,0 -1.343,-1.587 -3.374,-1.389c-2.031,0.199 -3.44,2.702 -3.44,2.702c0,0 1.734,-1.636 3.716,-1.859c1.982,-0.222 3.098,0.546 3.098,0.546" style="fill-rule:nonzero;"/><path d="M82.926,122.807c-0.174,-0.521 -0.645,0.148 -1.041,0.619c0,0 1.215,-0.099 1.041,-0.619" style="fill-rule:nonzero;"/><path d="M87.249,125.77c-1.637,0.315 -2.519,0.126 -4.344,0.504c-1.827,0.378 -0.441,1.826 -0.441,1.826c0.182,-0.424 1.471,-0.617 3.752,-1.357c-0.167,0.489 -0.565,1.507 -1.17,2.113c-0.82,0.818 -1.826,0.062 -1.826,0.062c0,0 -0.041,2.322 1.888,1.196c1.247,-0.727 1.935,-2.996 2.138,-3.767c1.753,-0.839 1.954,-2.025 1.954,-2.025c0,0 -0.315,1.133 -1.951,1.448" style="fill-rule:nonzero;"/><path d="M83.643,83.989c2.882,0.738 6.249,-0.425 6.544,-0.531c-0.184,0.063 -1.402,0.407 -5.073,-0.088c-4.021,-0.541 -6.264,-3.247 -6.264,-3.247c0,0 1.779,3.093 4.793,3.866" style="fill-rule:nonzero;"/><path d="M90.187,83.458l0.029,-0.01l-0.029,0.01Z" style="fill-rule:nonzero;"/><path d="M83.949,89.046c4.707,0.248 7.134,-1.19 7.134,-1.19c0,0 -2.871,0.703 -6.505,0.47c-3.633,-0.232 -5.335,-2.551 -5.335,-2.551c0,0 1.304,3.093 4.706,3.271" style="fill-rule:nonzero;"/><path d="M84.048,93.852c4.759,0.451 7.73,-1.387 7.73,-1.387c0,0 -3.27,0.795 -6.903,0.563c-3.635,-0.232 -5.336,-2.551 -5.336,-2.551c0,0 1.12,3.055 4.509,3.375" style="fill-rule:nonzero;"/><path d="M85.201,97.561c-3.634,-0.232 -5.335,-2.552 -5.335,-2.552c0,0 1.307,3.058 4.706,3.271c5.224,0.329 7.75,-1.356 7.75,-1.356c0,0 -3.487,0.869 -7.121,0.637" style="fill-rule:nonzero;"/><path d="M82.661,78.344c2.577,0.892 5.451,-0.049 5.451,-0.049c0,0 -1.496,0.296 -4.113,-0.347c-3.023,-0.744 -4.162,-2.627 -4.162,-2.627c0,0 0.248,2.13 2.824,3.023" style="fill-rule:nonzero;"/><path d="M191.862,191.862c-20.11,20.109 -47.879,32.542 -78.564,32.542c-30.684,0 -58.455,-12.433 -78.564,-32.542c-20.108,-20.11 -32.542,-47.879 -32.543,-78.564c0.001,-30.684 12.435,-58.454 32.543,-78.564c20.109,-20.108 47.88,-32.542 78.564,-32.543c30.685,0.001 58.454,12.435 78.564,32.543c20.109,20.11 32.542,47.879 32.542,78.564c0,30.685 -12.433,58.454 -32.542,78.564m-78.564,-191.862c-62.573,0.001 -113.297,50.725 -113.298,113.298l0,0.039c0.001,62.551 50.708,113.259 113.26,113.259l0.038,0c62.574,0 113.298,-50.724 113.298,-113.298c0,-62.573 -50.724,-113.297 -113.298,-113.298" style="fill-rule:nonzero;"/><path d="M75.939,119.047c0.32,-0.036 0.52,-0.104 0.52,-0.104c0,0 0.274,-0.72 1.016,-1.265c0.096,-0.07 0.196,-0.114 0.3,-0.14c-0.222,0.174 -0.367,0.441 -0.367,0.746c0,0.525 0.425,0.952 0.951,0.952c0.212,0 0.406,-0.071 0.564,-0.188c0.007,2.099 -0.153,4.268 0.46,5.096c0.917,1.239 1.686,0.744 1.686,0.744c0,0 -0.67,0.1 -1.166,-0.47c-0.495,-0.571 -0.181,-1.765 -0.304,-4.54c-0.125,-2.775 -0.924,-3.727 -0.924,-3.727c0.079,0.329 0.133,0.688 0.171,1.065c-0.454,-0.185 -1.271,-0.389 -1.866,0.189c-0.579,0.562 -1.031,0.737 -1.457,0.773c-0.192,-0.415 -0.403,-0.892 -0.639,-1.47c-0.15,-0.37 -0.268,-0.758 -0.36,-1.16c0.088,-0.225 0.242,-0.479 0.52,-0.735c0.795,-0.733 2.706,0 2.706,0c0,0 -1.815,-1.464 -2.611,-0.924c-0.396,0.269 -0.626,0.608 -0.758,0.882c-0.338,-2.375 0.11,-5.008 0.456,-6.527c0.44,-0.511 1.627,-1.805 2.78,-2.304c1.448,-0.63 1.825,0.566 1.825,0.566c0,0 4.596,-4.03 9.129,-3.401c4.533,0.63 6.106,4.912 6.106,4.912c0,0 -0.944,0.881 -0.378,4.155c0.425,2.446 2.079,4.014 2.887,4.649c0,3.044 -0.473,5.948 -1.312,8.131c-2.061,5.357 -2.69,7.3 -2.763,7.53c-0.898,0.463 -3.602,1.819 -6.369,2.857c-3.387,1.27 -3.67,-0.423 -5.93,-3.669c-2.257,-3.247 -4.092,-6.635 -3.951,-9.034c0.102,-1.744 -0.171,-2.078 -0.922,-3.589m53.458,-30.144c0,0 1.912,-5.205 7.424,-5.97c5.511,-0.766 11.098,4.133 11.098,4.133c0,0 0.459,-1.454 2.219,-0.689c1.401,0.609 2.845,2.181 3.38,2.801c0.419,1.849 0.965,5.049 0.553,7.937c-0.16,-0.334 -0.44,-0.746 -0.921,-1.072c-0.968,-0.658 -3.175,1.123 -3.175,1.123c0,0 2.323,-0.891 3.292,0c0.335,0.308 0.524,0.616 0.632,0.888c-0.112,0.489 -0.256,0.965 -0.439,1.414c-0.285,0.701 -0.543,1.286 -0.775,1.787c-0.52,-0.041 -1.068,-0.254 -1.773,-0.938c-0.723,-0.703 -1.716,-0.456 -2.268,-0.231c0.046,-0.458 0.111,-0.895 0.208,-1.294c0,0 -0.972,1.158 -1.124,4.531c-0.15,3.374 0.232,4.826 -0.37,5.519c-0.602,0.693 -1.417,0.572 -1.417,0.572c0,0 0.934,0.602 2.05,-0.904c0.745,-1.007 0.55,-3.644 0.558,-6.196c0.193,0.142 0.429,0.229 0.686,0.229c0.64,0 1.157,-0.519 1.157,-1.158c0,-0.37 -0.177,-0.695 -0.446,-0.907c0.125,0.032 0.248,0.086 0.364,0.171c0.904,0.662 1.235,1.536 1.235,1.536c0,0 0.244,0.084 0.634,0.127c-0.917,1.843 -1.246,2.242 -1.123,4.364c0.173,2.916 -2.058,7.035 -4.803,10.982c-2.747,3.947 -3.091,6.006 -7.208,4.461c-3.364,-1.261 -6.652,-2.91 -7.745,-3.473c-0.089,-0.282 -0.854,-2.645 -3.358,-9.154c-1.02,-2.654 -1.595,-6.185 -1.595,-9.885c0.983,-0.773 2.994,-2.678 3.51,-5.653c0.687,-3.979 -0.46,-5.051 -0.46,-5.051m42.218,76.877c-4.749,-9.669 -9.011,-17.63 -11.705,-22.391c-2.964,-5.24 -8.305,-6.317 -8.305,-6.317c0,0 5.255,2.627 7.627,8.353c1.654,3.991 9.39,16.936 12.603,24.969c-0.237,0.243 -0.471,0.489 -0.712,0.729c-2.054,2.055 -4.221,3.996 -6.484,5.824c0.41,-1.215 0.564,-2.339 0.364,-3.311c-1.366,-6.633 -10.011,-16.847 -13.743,-20.409c-3.732,-3.562 -4.751,-3.732 -7.294,1.697c0,0 1.659,-3.215 4.816,-1.374c0.029,0.17 0.412,0.325 0.362,0.231c0.789,0.538 1.664,1.389 2.625,2.669c4.632,6.177 14.155,14.137 10.774,22.136c-3.827,2.892 -7.916,5.456 -12.226,7.648c-2.218,1.134 -1.378,0.696 -3.252,1.565c-1.699,0.772 -3.43,1.483 -5.188,2.139c-3.895,-6.746 -2.459,-12.811 -0.413,-17.692c2.689,-6.407 3.001,-9.711 3.001,-9.711c0,0 -0.086,0.109 -0.231,0.24c0.077,-0.67 0.211,-1.773 0.414,-3.223c0.349,-2.489 1.605,-6.164 1.605,-6.164c0,0 -1.054,0.605 -2.376,4.569c-0.568,1.705 -1.028,3.72 -1.306,5.061c-0.121,-0.08 -0.242,-0.182 -0.364,-0.321l-0.728,-1.349c-1.147,-2.665 -2.349,-8.543 2.129,-18.432c1.804,-3.982 3.319,-6.055 3.902,-6.779c2.125,0.653 3.651,0.751 3.651,0.751c0,0 -7.982,-3.309 -9.876,-5.892c-1.454,-1.982 -1.285,-5.685 -1.128,-7.303c3.627,0.791 5.62,-3.513 7.468,-6.035c1.887,-2.574 5.663,-8.066 5.32,-10.297c-0.307,-1.987 -0.471,-3.296 0.589,-5.137c0.108,-0.026 0.216,-0.05 0.328,-0.087c1.266,-0.421 1.465,-1.769 1.465,-1.769c0,0 -0.466,0.329 -1.008,0.582c1.22,-2.29 1.33,-5.85 0.856,-8.689c-0.232,-1.394 -0.673,-2.471 -1.089,-3.236c0.394,-0.593 0.842,-1.818 -0.275,-3.616c-0.839,-1.349 -1.973,-2.619 -4.1,-3.782c-0.074,-2.596 -0.174,-10.01 0.532,-21.743c0.991,-16.453 -3.813,-18.577 -7.924,-17.236c-5.543,1.807 -7.926,7.206 -9.413,14.759c-1.485,7.554 -1.981,20.557 -1.981,20.557c0,0 0.247,-1.982 1.486,-12.383c1.239,-10.403 5.697,-20.31 10.03,-20.804c4.335,-0.496 7.106,4.136 6.812,10.897c-0.239,5.473 -1.252,23.708 -1.329,25.104c-0.154,-0.063 -0.308,-0.128 -0.47,-0.191c-2.603,-1.468 -6.461,-1.942 -12.087,-0.716c-5.97,1.301 -8.726,7.73 -9.95,16.073c-1.225,8.343 2.525,17.451 3.826,20.13c0.985,2.028 1.662,2.475 1.933,2.574c0.98,0.753 4.582,3.435 7.678,4.634c-0.224,2.058 -0.518,7.037 1.602,8.942c0.98,0.881 2.009,1.594 3.025,2.175c-0.688,1.001 -2.114,3.575 -4.19,9.802c-1.439,4.316 -2.537,8.962 -3.006,11.063c-2.478,-0.068 -18.402,0.7 -18.402,0.7c0,0 1.355,-2.164 3.392,-6.359c1.706,-3.512 4.069,-11.917 4.793,-14.56c1.198,-0.487 2.08,-1.249 2.292,-2.595c0.625,-3.961 -1.288,-14.357 -1.796,-16.995c2.506,2.551 4.729,3.636 4.729,3.636c0,0 -3.232,-2.039 -6.465,-6.816c-3.232,-4.779 -6.253,-13.634 -3.935,-22.768c2.319,-9.135 9.838,-9.557 9.838,-9.557c-3.514,-1.616 -8.784,2.53 -10.47,7.73c-0.128,0.394 -0.242,0.82 -0.347,1.259c-1.03,0.389 -5.071,2.403 -4.963,10.076c0.117,8.329 5.898,8.545 6.508,8.545c0.238,0.6 0.489,1.192 0.769,1.764c0.945,1.927 2.053,3.531 3.165,4.846c0.609,1.856 2.041,6.853 1.947,12.524c-0.12,7.19 -2.878,6.79 -6.353,7.51c-3.475,0.719 -7.048,1.502 -9.242,9.588c-0.815,3.001 -1.504,7.827 -1.987,11.88c-0.177,-0.928 -0.365,-1.783 -0.561,-2.506c-1.805,-6.652 -4.743,-7.296 -7.603,-7.887c-2.857,-0.592 -5.126,-0.263 -5.225,-6.177c-0.078,-4.666 1.1,-8.775 1.602,-10.302c0.914,-1.082 1.826,-2.401 2.603,-3.987c0.231,-0.47 0.437,-0.957 0.633,-1.45c0.501,0 5.256,-0.179 5.353,-7.029c0.089,-6.312 -3.236,-7.967 -4.083,-8.287c-0.086,-0.362 -0.18,-0.712 -0.285,-1.037c-1.387,-4.277 -5.722,-7.687 -8.612,-6.358c0,0 6.185,0.347 8.092,7.861c1.907,7.514 -0.578,14.798 -3.237,18.728c-2.658,3.93 -5.317,5.607 -5.317,5.607c0,0 1.828,-0.892 3.89,-2.991c-0.419,2.169 -1.993,10.721 -1.478,13.979c0.175,1.108 0.9,1.734 1.885,2.135c0.596,2.174 2.54,9.088 3.943,11.977c1.676,3.45 2.789,5.23 2.789,5.23c0,0 -3.163,-0.354 -6.625,-0.435l-0.065,-0.002c-0.696,-0.879 -1.604,-1.97 -1.544,-1.611c0.063,0.373 0.204,1.103 0.298,1.578c-2.569,-0.072 -5.162,-0.162 -7.2,-0.105c-0.386,-1.73 -1.288,-5.551 -2.472,-9.101c-1.708,-5.123 -2.881,-7.24 -3.447,-8.063c0.836,-0.478 1.682,-1.065 2.488,-1.788c1.744,-1.567 1.503,-5.663 1.319,-7.356c2.546,-0.987 5.509,-3.193 6.315,-3.812c0.223,-0.08 0.779,-0.449 1.59,-2.117c1.07,-2.203 4.155,-9.695 3.147,-16.558c-1.007,-6.862 -3.274,-12.15 -8.184,-13.221c-4.629,-1.008 -7.801,-0.618 -9.943,0.589c-0.133,0.052 -0.26,0.105 -0.386,0.158c-0.062,-1.117 -0.897,-16.143 -1.093,-20.65c-0.242,-5.561 2.038,-9.371 5.603,-8.963c3.564,0.407 7.231,8.555 8.25,17.112c1.019,8.556 1.222,10.186 1.222,10.186c0,0 -0.408,-10.696 -1.629,-16.91c-1.223,-6.212 -3.184,-10.652 -7.743,-12.139c-3.382,-1.103 -7.333,0.644 -6.517,14.177c0.581,9.651 0.498,15.75 0.437,17.885c-1.75,0.957 -2.683,2.001 -3.372,3.111c-0.919,1.479 -0.551,2.486 -0.227,2.974c-0.341,0.629 -0.704,1.515 -0.895,2.662c-0.39,2.335 -0.3,5.262 0.702,7.145c-0.444,-0.208 -0.828,-0.476 -0.828,-0.476c0,0 0.165,1.108 1.206,1.455c0.092,0.03 0.18,0.05 0.269,0.072c0.873,1.513 0.737,2.59 0.485,4.225c-0.283,1.835 2.824,6.352 4.375,8.47c1.522,2.073 3.16,5.614 6.144,4.964c0.129,1.329 0.268,4.376 -0.928,6.006c-1.558,2.125 -8.124,4.847 -8.124,4.847c0,0 1.255,-0.081 3.003,-0.619c0.48,0.597 1.726,2.302 3.209,5.577c3.684,8.134 2.696,12.969 1.753,15.16l-0.599,1.11c-0.101,0.115 -0.201,0.199 -0.3,0.265c-0.229,-1.103 -0.608,-2.761 -1.074,-4.163c-1.088,-3.261 -1.955,-3.758 -1.955,-3.758c0,0 1.034,3.022 1.321,5.07c0.166,1.193 0.276,2.099 0.339,2.65c-0.119,-0.107 -0.189,-0.196 -0.189,-0.196c0,0 0.257,2.718 2.468,7.986c1.573,3.753 2.707,8.356 0.235,13.47c-1.768,-0.652 -3.507,-1.363 -5.216,-2.132c-2.495,-1.179 -0.673,-0.357 -2.495,-1.179c-3.555,-1.748 -6.965,-3.745 -10.207,-5.971c-1.623,-6.23 5.595,-12.364 9.208,-17.179c0.7,-0.935 1.892,-2.047 1.872,-2.035c0.299,-0.176 0.566,-0.351 0.753,-0.435c2.485,-1.304 3.792,1.214 3.792,1.214c-2.092,-4.465 -2.929,-4.325 -5.999,-1.395c-3.07,2.93 -10.181,11.331 -11.304,16.788c-0.119,0.577 -0.082,1.221 0.072,1.91c-1.971,-1.424 -3.88,-2.931 -5.714,-4.522c2.629,-6.603 9.024,-17.302 10.389,-20.595c1.951,-4.708 6.273,-6.87 6.273,-6.87c0,0 -4.394,0.885 -6.831,5.196c-2.216,3.916 -5.721,10.464 -9.628,18.418c-0.529,1.077 -0.965,2.02 -1.323,2.858c-1.076,-0.968 -2.131,-1.962 -3.154,-2.987c-14.801,-14.802 -23.952,-35.24 -23.952,-57.825c0,-22.586 9.151,-43.023 23.952,-57.825c14.801,-14.8 35.238,-23.952 57.824,-23.952c22.587,0 43.024,9.152 57.825,23.952c14.802,14.802 23.952,35.239 23.953,57.825c-0.001,21.545 -8.332,41.131 -21.946,55.739c-0.418,-0.963 -0.919,-2.041 -1.515,-3.257m-61.553,-8.381c1.287,-6.062 3.675,-15.464 6.765,-19.382c1.057,-1.342 3.192,-1.721 5.344,-2.071c0.126,1.422 0.013,4.713 -2.518,9.686c-2.922,5.745 -6.169,8.92 -9.493,12.374c-0.032,-0.204 -0.065,-0.407 -0.098,-0.607m-7.37,-2.719c-2.085,-4.099 -2.174,-6.801 -2.07,-7.969c1.77,0.289 3.525,0.601 4.395,1.704c1.722,2.184 3.179,6.439 4.268,10.508c-0.338,0.357 -0.676,0.718 -1.016,1.089c-0.419,0.459 -0.724,0.951 -0.941,1.467c-1.614,-1.837 -3.174,-3.926 -4.636,-6.799m12.76,40.367c-0.716,0.019 -1.434,0.028 -2.154,0.028c-2.444,0 -4.862,-0.113 -7.253,-0.324c-0.422,-2.65 -0.649,-8.308 2.93,-15.461c0.625,-1.25 1.683,-2.873 2.581,-4.602c0.167,0.302 0.321,0.591 0.458,0.864c4.698,9.39 4.002,16.659 3.438,19.495m-2.154,-165.718c-46.374,0.001 -83.968,37.594 -83.968,83.969c0,46.375 37.594,83.968 83.968,83.968c46.376,0 83.968,-37.593 83.97,-83.968c-0.002,-46.375 -37.594,-83.968 -83.97,-83.969" style="fill-rule:nonzero;"/><path d="M30.425,147.511c0.287,0.018 0.517,0.105 0.686,0.262c0.248,0.214 0.447,0.54 0.597,0.978l0.172,0.501l0.413,-0.141l-4.598,-13.408l-5.496,1.251l0.157,0.456c1.307,-0.058 2.332,0.003 3.075,0.184c0.742,0.181 1.346,0.49 1.811,0.928c0.465,0.437 0.836,1.058 1.111,1.859l0.431,1.258c0.245,0.713 0.366,1.173 0.362,1.382c-0.015,0.296 -0.112,0.524 -0.294,0.686c-0.181,0.161 -0.657,0.375 -1.429,0.639l-9.622,3.299c-0.757,0.26 -1.238,0.38 -1.444,0.359c-0.29,-0.025 -0.52,-0.116 -0.691,-0.273c-0.247,-0.214 -0.447,-0.54 -0.597,-0.978l-0.225,-0.657l-0.412,0.142l2.76,8.05l0.413,-0.141l-0.172,-0.501c-0.146,-0.423 -0.188,-0.784 -0.129,-1.082c0.06,-0.298 0.173,-0.521 0.338,-0.67c0.164,-0.147 0.633,-0.354 1.405,-0.618l9.932,-3.406c0.758,-0.26 1.239,-0.38 1.446,-0.359" style="fill-rule:nonzero;"/><path d="M25.747,132.59c0.281,0.067 0.491,0.193 0.631,0.378c0.206,0.253 0.345,0.609 0.417,1.066l0.081,0.524l0.432,-0.067l-2.131,-13.631l-5.123,0.073l0.067,0.431c1.457,0.169 2.595,0.645 3.416,1.426c0.821,0.781 1.347,1.908 1.577,3.381l0.147,0.943c0.071,0.449 0.059,0.785 -0.033,1.006c-0.093,0.221 -0.23,0.383 -0.413,0.487c-0.182,0.104 -0.707,0.224 -1.576,0.359l-4.443,0.694c-0.118,-0.751 -0.108,-1.341 0.028,-1.767c0.136,-0.427 0.467,-0.833 0.995,-1.222c0.527,-0.388 1.233,-0.699 2.118,-0.933l-0.07,-0.441l-8.258,1.289l0.07,0.442c1.245,-0.067 2.215,0.076 2.914,0.427c0.698,0.352 1.126,1.027 1.282,2.028l0.049,0.314l-6.42,1.003l-0.254,-1.629c-0.187,-1.194 -0.245,-2.019 -0.173,-2.474c0.117,-0.781 0.391,-1.414 0.823,-1.898c0.434,-0.485 1.202,-0.929 2.307,-1.332l-0.069,-0.442l-4.665,0.729l2.063,13.2l0.431,-0.067l-0.083,-0.523c-0.08,-0.512 -0.034,-0.932 0.137,-1.261c0.114,-0.232 0.301,-0.408 0.561,-0.528c0.157,-0.064 0.592,-0.152 1.305,-0.263l10.374,-1.622c0.792,-0.123 1.286,-0.156 1.486,-0.1" style="fill-rule:nonzero;"/><path d="M8.959,111.774c-0.134,0.484 -0.204,0.985 -0.213,1.503c-0.023,1.42 0.405,2.606 1.285,3.554c0.879,0.948 1.954,1.432 3.225,1.452c0.746,0.012 1.431,-0.147 2.057,-0.478c0.625,-0.332 1.194,-0.81 1.707,-1.438c0.513,-0.628 1.137,-1.661 1.875,-3.102c0.527,-1.027 0.952,-1.742 1.277,-2.145c0.324,-0.403 0.665,-0.701 1.02,-0.896c0.358,-0.194 0.724,-0.289 1.1,-0.282c0.636,0.01 1.189,0.279 1.659,0.809c0.47,0.53 0.698,1.234 0.684,2.113c-0.019,1.138 -0.481,2.192 -1.387,3.162c-0.908,0.971 -2.211,1.614 -3.911,1.933l-0.007,0.435l6.026,0.098l0.007,-0.436c-0.32,-0.146 -0.556,-0.335 -0.708,-0.565c-0.154,-0.229 -0.229,-0.447 -0.226,-0.651c0.004,-0.244 0.087,-0.552 0.25,-0.925c0.294,-0.671 0.495,-1.229 0.605,-1.675c0.108,-0.445 0.168,-0.919 0.176,-1.421c0.026,-1.602 -0.434,-2.929 -1.378,-3.985c-0.944,-1.055 -2.083,-1.594 -3.418,-1.615c-1.051,-0.017 -1.99,0.29 -2.816,0.92c-0.827,0.638 -1.715,1.883 -2.663,3.735c-0.68,1.324 -1.153,2.168 -1.418,2.532c-0.369,0.497 -0.74,0.856 -1.113,1.078c-0.277,0.16 -0.592,0.237 -0.945,0.232c-0.558,-0.009 -1.045,-0.251 -1.466,-0.725c-0.42,-0.474 -0.624,-1.111 -0.61,-1.911c0.016,-1.036 0.438,-1.993 1.264,-2.87c0.827,-0.878 1.909,-1.419 3.246,-1.625l0.008,-0.483l-5.322,0.043l-0.005,0.354c0.477,0.109 0.777,0.224 0.9,0.343c0.124,0.121 0.184,0.283 0.181,0.486c-0.004,0.212 -0.137,0.581 -0.4,1.107c-0.264,0.525 -0.446,0.972 -0.546,1.339" style="fill-rule:nonzero;"/><path d="M25.298,100.478l0.425,0.096l1.825,-8.145l-0.425,-0.095l-0.116,0.518c-0.097,0.436 -0.25,0.765 -0.456,0.989c-0.207,0.223 -0.42,0.356 -0.639,0.4c-0.219,0.043 -0.726,-0.025 -1.523,-0.203l-4.767,-1.069l0.1,-0.448c0.184,-0.819 0.584,-1.499 1.2,-2.041c0.617,-0.541 1.68,-0.719 3.19,-0.533l0.09,-0.402l-7.823,-1.754l-0.089,0.402c0.814,0.279 1.432,0.624 1.854,1.037c0.423,0.412 0.688,0.86 0.797,1.343c0.109,0.482 0.086,1.068 -0.068,1.757l-0.101,0.449l-6.398,-1.434l0.324,-1.448c0.279,-1.241 0.526,-2.078 0.744,-2.511c0.395,-0.788 0.893,-1.346 1.498,-1.673c0.604,-0.327 1.443,-0.427 2.515,-0.299l0.107,-0.471l-4.47,-1.001l-2.945,13.14l0.425,0.095l0.116,-0.516c0.098,-0.437 0.25,-0.767 0.457,-0.99c0.207,-0.223 0.419,-0.354 0.637,-0.394c0.218,-0.039 0.725,0.03 1.522,0.209l10.246,2.297c0.781,0.175 1.254,0.325 1.419,0.45c0.236,0.166 0.386,0.361 0.448,0.584c0.099,0.311 0.098,0.693 -0.003,1.145l-0.116,0.516Z" style="fill-rule:nonzero;"/><path d="M28.607,86.67l0.409,0.15l2.878,-7.834l-0.409,-0.15l-0.183,0.497c-0.154,0.42 -0.348,0.728 -0.583,0.921c-0.234,0.194 -0.462,0.298 -0.685,0.313c-0.223,0.014 -0.717,-0.119 -1.483,-0.401l-9.856,-3.622c-0.751,-0.276 -1.2,-0.487 -1.348,-0.633c-0.209,-0.202 -0.331,-0.419 -0.363,-0.648c-0.058,-0.322 -0.006,-0.701 0.153,-1.135l0.183,-0.498l-0.409,-0.149l-2.879,7.834l0.41,0.149l0.183,-0.496c0.153,-0.421 0.347,-0.728 0.582,-0.921c0.235,-0.194 0.462,-0.297 0.683,-0.307c0.222,-0.01 0.715,0.125 1.481,0.406l9.857,3.621c0.75,0.277 1.2,0.488 1.348,0.634c0.211,0.195 0.334,0.407 0.367,0.637c0.057,0.322 0.006,0.701 -0.154,1.135l-0.182,0.497Z" style="fill-rule:nonzero;"/><path d="M22.18,63.648l-0.383,-0.206l-4.012,7.506l0.384,0.206l0.25,-0.467c0.211,-0.395 0.446,-0.672 0.704,-0.831c0.259,-0.161 0.499,-0.231 0.719,-0.21c0.221,0.019 0.691,0.222 1.411,0.607l9.261,4.949c0.706,0.377 1.122,0.648 1.247,0.813c0.183,0.223 0.276,0.451 0.276,0.682c0.013,0.327 -0.09,0.694 -0.309,1.103l-0.249,0.467l0.384,0.205l6.68,-12.5l-4.659,-3.17l-0.227,0.425c0.934,0.918 1.587,1.709 1.96,2.376c0.374,0.667 0.558,1.32 0.556,1.958c-0.004,0.639 -0.206,1.333 -0.605,2.08l-0.627,1.173c-0.355,0.664 -0.61,1.067 -0.765,1.206c-0.225,0.191 -0.46,0.275 -0.701,0.253c-0.242,-0.022 -0.723,-0.226 -1.443,-0.611l-8.97,-4.794c-0.706,-0.377 -1.122,-0.648 -1.247,-0.813c-0.18,-0.23 -0.27,-0.46 -0.271,-0.692c-0.012,-0.327 0.091,-0.694 0.309,-1.103l0.327,-0.612Z" style="fill-rule:nonzero;"/><path d="M31.753,49.155l0.429,-0.547l-0.343,-0.269l-5.252,6.699l0.343,0.268l0.327,-0.417c0.276,-0.352 0.555,-0.584 0.838,-0.696c0.283,-0.113 0.531,-0.14 0.745,-0.082c0.214,0.058 0.642,0.338 1.284,0.842l8.263,6.479c0.63,0.494 0.992,0.833 1.087,1.017c0.143,0.251 0.194,0.49 0.155,0.719c-0.045,0.323 -0.211,0.668 -0.496,1.032l-0.327,0.417l0.343,0.268l8.745,-11.154l-4.039,-3.929l-0.297,0.381c0.76,1.065 1.267,1.958 1.518,2.679c0.253,0.721 0.322,1.396 0.207,2.025c-0.113,0.629 -0.431,1.276 -0.955,1.944l-0.821,1.046c-0.464,0.593 -0.786,0.946 -0.961,1.056c-0.256,0.149 -0.501,0.19 -0.736,0.126c-0.234,-0.063 -0.672,-0.347 -1.314,-0.851l-8.003,-6.275c-0.631,-0.494 -0.994,-0.833 -1.088,-1.017c-0.138,-0.257 -0.187,-0.5 -0.148,-0.729c0.045,-0.324 0.21,-0.668 0.496,-1.032" style="fill-rule:nonzero;"/><path d="M38.717,40.841c0.385,-0.347 0.762,-0.537 1.131,-0.574c0.257,-0.03 0.506,0.031 0.749,0.182c0.139,0.097 0.45,0.413 0.933,0.949l7.022,7.808c0.535,0.595 0.834,0.991 0.895,1.19c0.097,0.271 0.107,0.516 0.028,0.734c-0.1,0.312 -0.322,0.622 -0.666,0.931l-0.394,0.355l0.291,0.324l10.258,-9.226l-2.858,-4.252l-0.324,0.291c0.652,1.312 0.876,2.527 0.67,3.64c-0.207,1.114 -0.864,2.17 -1.973,3.167l-0.708,0.638c-0.339,0.305 -0.626,0.478 -0.862,0.521c-0.235,0.044 -0.447,0.017 -0.633,-0.079c-0.187,-0.096 -0.574,-0.471 -1.162,-1.125l-3.007,-3.343c0.566,-0.509 1.065,-0.823 1.496,-0.941c0.431,-0.119 0.954,-0.064 1.566,0.165c0.613,0.23 1.259,0.653 1.938,1.266l0.333,-0.299l-5.59,-6.214l-0.332,0.299c0.736,1.006 1.147,1.897 1.234,2.674c0.086,0.777 -0.246,1.504 -0.999,2.182l-0.237,0.212l-4.345,-4.831l1.225,-1.103c0.899,-0.808 1.559,-1.306 1.98,-1.495c0.717,-0.329 1.398,-0.444 2.04,-0.346c0.642,0.097 1.434,0.499 2.374,1.205l0.333,-0.299l-3.157,-3.51l-9.934,8.935l0.291,0.323l0.394,-0.354Z" style="fill-rule:nonzero;"/><path d="M61.983,40.707c0.204,-0.132 0.508,-0.234 0.909,-0.307c0.721,-0.128 1.296,-0.271 1.728,-0.428c0.431,-0.157 0.857,-0.372 1.28,-0.644c1.344,-0.868 2.193,-1.989 2.545,-3.361c0.352,-1.37 0.167,-2.617 -0.557,-3.737c-0.571,-0.884 -1.347,-1.495 -2.331,-1.831c-0.99,-0.332 -2.518,-0.377 -4.586,-0.136c-1.479,0.17 -2.443,0.245 -2.893,0.228c-0.618,-0.03 -1.122,-0.139 -1.514,-0.325c-0.287,-0.142 -0.526,-0.361 -0.717,-0.658c-0.303,-0.468 -0.375,-1.008 -0.213,-1.621c0.16,-0.612 0.576,-1.136 1.249,-1.57c0.87,-0.562 1.899,-0.743 3.088,-0.543c1.189,0.199 2.241,0.797 3.155,1.794l0.406,-0.262l-2.995,-4.4l-0.296,0.192c0.173,0.457 0.245,0.771 0.215,0.94c-0.031,0.17 -0.133,0.31 -0.304,0.421c-0.178,0.114 -0.559,0.208 -1.142,0.281c-0.583,0.074 -1.056,0.17 -1.417,0.291c-0.476,0.159 -0.933,0.378 -1.368,0.66c-1.193,0.77 -1.939,1.784 -2.238,3.043c-0.3,1.257 -0.105,2.421 0.585,3.488c0.405,0.627 0.918,1.108 1.542,1.443c0.622,0.336 1.337,0.543 2.143,0.62c0.807,0.077 2.014,0.022 3.621,-0.166c1.147,-0.133 1.978,-0.177 2.493,-0.132c0.516,0.047 0.953,0.163 1.313,0.352c0.359,0.188 0.641,0.44 0.845,0.756c0.345,0.535 0.429,1.144 0.249,1.829c-0.178,0.685 -0.637,1.267 -1.375,1.744c-0.956,0.617 -2.089,0.818 -3.4,0.604c-1.311,-0.214 -2.57,-0.939 -3.78,-2.176l-0.366,0.236l3.269,5.063l0.366,-0.236c-0.056,-0.347 -0.031,-0.648 0.076,-0.903c0.105,-0.256 0.244,-0.439 0.415,-0.549" style="fill-rule:nonzero;"/><path d="M76.68,16.68c1.233,-0.445 2.157,-0.646 2.77,-0.605c0.87,0.058 1.705,0.454 2.505,1.186c1.015,0.94 1.864,2.375 2.548,4.306c0.847,2.397 1.029,4.323 0.544,5.776c-0.353,1.073 -1.147,1.829 -2.383,2.266c-0.377,0.134 -0.685,0.18 -0.924,0.14c-0.167,-0.024 -0.304,-0.096 -0.413,-0.216c-0.11,-0.12 -0.274,-0.491 -0.493,-1.112l-4.154,-11.741Zm-0.362,15.636l-0.5,0.177l0.145,0.41l6.736,-2.383c0.97,-0.342 1.665,-0.637 2.084,-0.886c0.953,-0.553 1.721,-1.131 2.303,-1.732c0.582,-0.601 1.041,-1.288 1.375,-2.06c0.335,-0.772 0.515,-1.664 0.54,-2.676c0.026,-1.012 -0.15,-2.046 -0.524,-3.105c-0.542,-1.531 -1.373,-2.782 -2.494,-3.75c-1.121,-0.968 -2.457,-1.516 -4.008,-1.642c-1.268,-0.1 -2.801,0.167 -4.599,0.803l-6.736,2.383l0.145,0.411l0.499,-0.178c0.422,-0.148 0.783,-0.195 1.082,-0.138c0.299,0.057 0.523,0.166 0.672,0.33c0.15,0.164 0.361,0.631 0.633,1.4l3.501,9.9c0.275,0.776 0.407,1.254 0.395,1.433c-0.027,0.276 -0.132,0.523 -0.318,0.743c-0.184,0.219 -0.495,0.406 -0.931,0.56" style="fill-rule:nonzero;"/><path d="M104.467,9.968c0.268,-0.223 0.623,-0.368 1.066,-0.435l0.325,-0.049l-0.065,-0.431l-5.458,0.827l0.064,0.43c0.637,-0.095 1.143,-0.081 1.519,0.044c0.243,0.083 0.461,0.264 0.655,0.544c0.193,0.281 0.343,0.774 0.449,1.48l0.975,6.436c0.254,1.676 0.282,2.874 0.086,3.595c-0.197,0.72 -0.567,1.317 -1.11,1.793c-0.543,0.475 -1.242,0.777 -2.095,0.907c-0.745,0.112 -1.385,0.054 -1.919,-0.175c-0.535,-0.228 -0.944,-0.555 -1.226,-0.98c-0.283,-0.427 -0.531,-1.345 -0.745,-2.758l-1.17,-7.727c-0.137,-0.9 -0.173,-1.47 -0.109,-1.711c0.061,-0.239 0.199,-0.44 0.407,-0.603c0.21,-0.163 0.621,-0.291 1.234,-0.383l0.407,-0.062l-0.064,-0.431l-8.148,1.234l0.065,0.431c0.666,-0.109 1.133,-0.116 1.402,-0.022c0.268,0.094 0.469,0.245 0.604,0.45c0.134,0.206 0.27,0.763 0.407,1.671l1.171,7.728c0.198,1.311 0.566,2.323 1.102,3.035c0.537,0.714 1.35,1.241 2.442,1.584c0.8,0.252 1.883,0.274 3.249,0.068c1.637,-0.249 2.877,-0.789 3.719,-1.623c0.842,-0.834 1.323,-1.681 1.443,-2.54c0.119,-0.86 0.039,-2.216 -0.241,-4.071l-0.907,-5.994c-0.098,-0.645 -0.116,-1.098 -0.052,-1.362c0.077,-0.376 0.251,-0.677 0.518,-0.9" style="fill-rule:nonzero;"/><path d="M135.222,13.82c0.103,-0.786 0.21,-1.267 0.32,-1.442c0.15,-0.242 0.33,-0.404 0.539,-0.488c0.301,-0.126 0.685,-0.159 1.152,-0.098l0.514,0.068l0.056,-0.433l-6.442,-0.844l-5.664,9.871l-3.078,-11.017l-6.466,-0.848l-0.057,0.431l0.502,0.066c0.443,0.058 0.788,0.18 1.032,0.367c0.245,0.186 0.397,0.385 0.456,0.594c0.06,0.21 0.037,0.715 -0.067,1.517l-1.314,10.015c-0.093,0.707 -0.153,1.103 -0.179,1.187c-0.134,0.355 -0.292,0.622 -0.474,0.805c-0.182,0.181 -0.432,0.313 -0.752,0.394c-0.319,0.08 -0.653,0.094 -1.003,0.04l-0.163,-0.021l-0.056,0.432l5.415,0.709l0.057,-0.431c-0.724,-0.095 -1.239,-0.287 -1.545,-0.577c-0.307,-0.289 -0.485,-0.635 -0.536,-1.037c-0.015,-0.185 0.028,-0.666 0.131,-1.443l1.461,-11.147l4.284,15.141l0.28,0.036l7.962,-13.642l-1.538,11.73c-0.104,0.794 -0.211,1.278 -0.32,1.454c-0.152,0.25 -0.333,0.416 -0.542,0.499c-0.301,0.127 -0.685,0.159 -1.152,0.098l-0.513,-0.067l-0.057,0.432l8.264,1.083l0.057,-0.431l-0.514,-0.068c-0.443,-0.058 -0.788,-0.18 -1.032,-0.367c-0.246,-0.186 -0.397,-0.386 -0.456,-0.6c-0.059,-0.213 -0.036,-0.725 0.07,-1.534l1.368,-10.434Z" style="fill-rule:nonzero;"/><path d="M145.634,17.095c0.241,-0.764 0.43,-1.222 0.569,-1.376c0.193,-0.219 0.403,-0.35 0.631,-0.394c0.319,-0.072 0.699,-0.038 1.141,0.101l0.505,0.16l0.131,-0.416l-7.96,-2.51l-0.131,0.416l0.506,0.159c0.426,0.134 0.742,0.314 0.946,0.538c0.205,0.226 0.317,0.449 0.339,0.669c0.021,0.221 -0.091,0.72 -0.337,1.499l-3.158,10.013c-0.241,0.764 -0.431,1.223 -0.57,1.376c-0.185,0.222 -0.392,0.354 -0.619,0.397c-0.319,0.072 -0.699,0.039 -1.14,-0.1l-0.506,-0.159l-0.131,0.414l7.96,2.511l0.131,-0.415l-0.505,-0.159c-0.427,-0.135 -0.743,-0.315 -0.948,-0.54c-0.205,-0.225 -0.319,-0.448 -0.343,-0.67c-0.026,-0.222 0.085,-0.722 0.331,-1.5l3.158,-10.014Z" style="fill-rule:nonzero;"/><path d="M163.113,27.392l2.415,-4.978l-0.413,-0.201c-0.224,0.336 -0.459,0.548 -0.706,0.633c-0.246,0.085 -0.482,0.073 -0.708,-0.036c-0.177,-0.086 -0.528,-0.414 -1.054,-0.983c-0.91,-0.982 -1.87,-1.719 -2.881,-2.209c-1.369,-0.664 -2.827,-0.952 -4.374,-0.865c-1.547,0.086 -2.977,0.57 -4.289,1.451c-1.313,0.881 -2.301,2.007 -2.966,3.376c-0.63,1.299 -0.902,2.681 -0.814,4.145c0.088,1.464 0.577,2.792 1.469,3.984c0.892,1.191 2.104,2.158 3.636,2.902c1.165,0.566 2.275,0.87 3.33,0.916c1.055,0.046 2.19,-0.157 3.402,-0.607l0.602,-1.239c-1.303,0.563 -2.427,0.86 -3.37,0.891c-0.944,0.03 -1.868,-0.174 -2.771,-0.613c-1.102,-0.534 -1.868,-1.239 -2.297,-2.114c-0.431,-0.876 -0.552,-1.921 -0.364,-3.134c0.187,-1.213 0.592,-2.462 1.216,-3.747c0.633,-1.306 1.431,-2.385 2.394,-3.235c0.749,-0.665 1.624,-1.074 2.622,-1.226c0.999,-0.153 1.947,-0.012 2.844,0.423c1.072,0.521 1.865,1.333 2.376,2.436c0.512,1.103 0.608,2.379 0.289,3.829l0.412,0.201Z" style="fill-rule:nonzero;"/><path d="M167.914,34.055c1.382,-1.827 2.69,-3.042 3.923,-3.644c1.507,-0.73 2.843,-0.655 4.007,0.226c0.631,0.478 1.06,1.073 1.284,1.784c0.225,0.711 0.178,1.603 -0.141,2.675c-0.319,1.072 -1.115,2.45 -2.389,4.134c-1.07,1.415 -2.091,2.445 -3.063,3.093c-0.972,0.647 -1.885,0.962 -2.739,0.947c-0.668,-0.015 -1.325,-0.266 -1.97,-0.752c-0.957,-0.725 -1.427,-1.651 -1.41,-2.78c0.023,-1.617 0.855,-3.511 2.498,-5.683m-1.592,9.188c2.284,1.728 4.668,2.251 7.151,1.571c1.873,-0.511 3.42,-1.575 4.642,-3.189c1.43,-1.891 1.987,-3.944 1.671,-6.161c-0.316,-2.217 -1.516,-4.055 -3.601,-5.514c-1.82,-1.495 -3.851,-2.099 -6.091,-1.81c-2.241,0.288 -4.075,1.376 -5.505,3.267c-1.274,1.684 -1.88,3.513 -1.819,5.488c0.077,2.499 1.261,4.615 3.552,6.348" style="fill-rule:nonzero;"/><path d="M188.29,42.008c-1.463,-0.51 -2.969,-0.606 -4.519,-0.292c-1.549,0.314 -2.892,0.977 -4.029,1.991c-1.077,0.961 -1.854,2.135 -2.331,3.522c-0.477,1.388 -0.531,2.802 -0.16,4.243c0.37,1.442 1.123,2.798 2.256,4.069c0.862,0.967 1.772,1.672 2.73,2.115c0.958,0.445 2.084,0.689 3.377,0.736l1.028,-0.917c-1.419,0.025 -2.571,-0.129 -3.455,-0.46c-0.884,-0.332 -1.661,-0.872 -2.33,-1.622c-0.814,-0.913 -1.253,-1.858 -1.317,-2.83c-0.064,-0.975 0.222,-1.986 0.858,-3.036c0.634,-1.051 1.486,-2.051 2.551,-3.002c1.084,-0.966 2.233,-1.659 3.446,-2.079c0.948,-0.329 1.911,-0.374 2.893,-0.134c0.981,0.239 1.804,0.731 2.466,1.475c0.794,0.89 1.218,1.943 1.271,3.158c0.052,1.215 -0.346,2.431 -1.193,3.65l0.305,0.343l4.129,-3.682l-0.304,-0.343c-0.336,0.225 -0.634,0.331 -0.894,0.315c-0.261,-0.015 -0.474,-0.115 -0.642,-0.303c-0.13,-0.147 -0.33,-0.583 -0.6,-1.311c-0.467,-1.254 -1.074,-2.3 -1.821,-3.139c-1.013,-1.136 -2.252,-1.958 -3.715,-2.467" style="fill-rule:nonzero;"/><path d="M194.245,69.946c-1.144,0.229 -2.109,0.174 -2.893,-0.166c-0.613,-0.267 -1.124,-0.749 -1.535,-1.446c-0.61,-1.034 -0.693,-2.069 -0.247,-3.107c0.635,-1.486 2.127,-2.921 4.472,-4.304c1.974,-1.164 3.646,-1.789 5.016,-1.877c1.67,-0.103 2.877,0.475 3.618,1.733c0.403,0.682 0.573,1.396 0.51,2.139c-0.063,0.742 -0.446,1.549 -1.149,2.42c-0.704,0.87 -1.964,1.841 -3.783,2.913c-1.527,0.901 -2.864,1.466 -4.009,1.695m6.351,1.859c2.041,-1.204 3.338,-2.891 3.889,-5.061c0.552,-2.171 0.141,-4.327 -1.231,-6.47c-1.115,-2.076 -2.763,-3.406 -4.945,-3.992c-2.181,-0.587 -4.292,-0.277 -6.334,0.927c-1.818,1.072 -3.075,2.533 -3.77,4.382c-0.879,2.34 -0.59,4.748 0.869,7.222c1.455,2.468 3.461,3.859 6.015,4.175c1.926,0.24 3.762,-0.155 5.507,-1.183" style="fill-rule:nonzero;"/><path d="M198.516,87.634c0.975,0.674 1.897,0.99 2.763,0.95c0.867,-0.042 2.186,-0.371 3.957,-0.989l5.723,-1.999c0.615,-0.215 1.057,-0.315 1.328,-0.302c0.385,0.007 0.712,0.121 0.98,0.343c0.269,0.222 0.478,0.545 0.625,0.967l0.108,0.311l0.412,-0.144l-1.82,-5.212l-0.412,0.144c0.213,0.607 0.292,1.108 0.238,1.501c-0.036,0.253 -0.175,0.501 -0.414,0.742c-0.239,0.243 -0.697,0.481 -1.371,0.716l-6.146,2.146c-1.6,0.56 -2.772,0.808 -3.516,0.748c-0.745,-0.06 -1.401,-0.313 -1.968,-0.759c-0.567,-0.446 -0.993,-1.077 -1.278,-1.891c-0.248,-0.712 -0.309,-1.351 -0.183,-1.919c0.125,-0.568 0.372,-1.03 0.738,-1.386c0.366,-0.356 1.223,-0.771 2.571,-1.241l7.38,-2.577c0.859,-0.3 1.413,-0.442 1.66,-0.423c0.247,0.017 0.47,0.113 0.669,0.289c0.198,0.177 0.4,0.557 0.603,1.142l0.136,0.389l0.412,-0.143l-2.717,-7.78l-0.411,0.144c0.229,0.635 0.323,1.092 0.28,1.373c-0.043,0.281 -0.153,0.507 -0.33,0.677c-0.179,0.17 -0.701,0.406 -1.568,0.709l-7.379,2.577c-1.252,0.437 -2.178,0.985 -2.779,1.644c-0.602,0.659 -0.97,1.557 -1.105,2.692c-0.1,0.833 0.077,1.901 0.533,3.205c0.546,1.564 1.306,2.682 2.281,3.356" style="fill-rule:nonzero;"/><path d="M214.234,92.063c-0.189,0.117 -0.686,0.238 -1.493,0.362l-10.377,1.602c-0.792,0.123 -1.286,0.155 -1.486,0.099c-0.28,-0.069 -0.49,-0.195 -0.63,-0.379c-0.206,-0.254 -0.345,-0.611 -0.415,-1.068l-0.081,-0.524l-0.431,0.067l2.164,14.007l5.629,-0.262l-0.074,-0.476c-1.297,-0.174 -2.296,-0.414 -2.994,-0.724c-0.699,-0.308 -1.238,-0.719 -1.62,-1.232c-0.381,-0.513 -0.636,-1.188 -0.766,-2.026l-0.202,-1.315c-0.115,-0.744 -0.153,-1.219 -0.113,-1.424c0.067,-0.288 0.203,-0.496 0.411,-0.623c0.206,-0.127 0.713,-0.253 1.519,-0.378l10.052,-1.551c0.791,-0.123 1.286,-0.155 1.486,-0.099c0.281,0.076 0.491,0.206 0.631,0.391c0.206,0.254 0.345,0.609 0.416,1.068l0.105,0.686l0.431,-0.067l-1.299,-8.411l-0.431,0.066l0.082,0.524c0.068,0.442 0.046,0.805 -0.065,1.088c-0.111,0.283 -0.26,0.483 -0.449,0.599" style="fill-rule:nonzero;"/><path d="M216.232,109.499c-0.203,0.089 -0.713,0.141 -1.528,0.154l-10.499,0.171c-0.801,0.014 -1.296,-0.022 -1.485,-0.105c-0.269,-0.105 -0.46,-0.259 -0.574,-0.462c-0.169,-0.279 -0.257,-0.65 -0.265,-1.113l-0.009,-0.53l-0.435,0.007l0.137,8.346l0.435,-0.008l-0.009,-0.53c-0.007,-0.447 0.064,-0.804 0.212,-1.068c0.149,-0.267 0.325,-0.446 0.528,-0.539c0.202,-0.094 0.711,-0.147 1.527,-0.16l10.499,-0.172c0.8,-0.013 1.295,0.022 1.486,0.106c0.267,0.112 0.458,0.271 0.572,0.473c0.169,0.28 0.257,0.65 0.265,1.114l0.009,0.529l0.436,-0.006l-0.137,-8.346l-0.435,0.008l0.009,0.529c0.006,0.447 -0.064,0.803 -0.213,1.069c-0.148,0.266 -0.324,0.443 -0.526,0.533" style="fill-rule:nonzero;"/><path d="M217.63,118.412l-0.433,-0.052l-0.064,0.526c-0.061,0.514 -0.22,0.906 -0.474,1.176c-0.173,0.192 -0.401,0.311 -0.682,0.355c-0.169,0.02 -0.612,-0.014 -1.328,-0.1l-10.425,-1.261c-0.795,-0.097 -1.281,-0.198 -1.457,-0.307c-0.251,-0.141 -0.42,-0.32 -0.505,-0.535c-0.129,-0.3 -0.166,-0.681 -0.111,-1.14l0.064,-0.526l-0.432,-0.052l-1.657,13.696l4.951,1.322l0.052,-0.433c-1.355,-0.559 -2.321,-1.325 -2.899,-2.3c-0.578,-0.975 -0.777,-2.203 -0.598,-3.683l0.115,-0.947c0.054,-0.451 0.156,-0.771 0.305,-0.959c0.149,-0.187 0.325,-0.306 0.529,-0.356c0.204,-0.051 0.742,-0.024 1.615,0.082l4.464,0.54c-0.091,0.755 -0.261,1.32 -0.507,1.693c-0.247,0.374 -0.676,0.675 -1.289,0.905c-0.613,0.231 -1.377,0.338 -2.292,0.322l-0.054,0.444l8.298,1.004l0.053,-0.444c-1.216,-0.274 -2.112,-0.675 -2.688,-1.203c-0.577,-0.528 -0.804,-1.295 -0.683,-2.299l0.039,-0.316l6.451,0.78l-0.198,1.636c-0.145,1.199 -0.315,2.009 -0.507,2.429c-0.325,0.719 -0.761,1.253 -1.309,1.603c-0.548,0.348 -1.408,0.566 -2.581,0.654l-0.054,0.444l4.687,0.566l1.604,-13.264Z" style="fill-rule:nonzero;"/><path d="M205.749,140.49l0.2,-0.64l6.675,2.084l-0.376,1.203c-0.376,1.205 -0.927,1.993 -1.65,2.364c-0.725,0.369 -1.667,0.373 -2.829,0.011c-0.801,-0.25 -1.405,-0.602 -1.81,-1.053c-0.406,-0.452 -0.624,-0.966 -0.653,-1.542c-0.03,-0.576 0.118,-1.385 0.443,-2.427m0.888,8.725c0.922,0.288 1.809,0.27 2.664,-0.056c0.854,-0.325 1.541,-0.875 2.062,-1.65c0.522,-0.774 1.071,-2.083 1.645,-3.925l2.212,-7.08l-0.416,-0.129c-0.218,0.696 -0.429,1.152 -0.637,1.367c-0.207,0.216 -0.433,0.339 -0.678,0.375c-0.245,0.034 -0.78,-0.078 -1.604,-0.335l-9.887,-3.088c-0.824,-0.258 -1.326,-0.47 -1.504,-0.636c-0.178,-0.167 -0.293,-0.396 -0.346,-0.688c-0.053,-0.292 0.031,-0.79 0.251,-1.493l-0.416,-0.131l-2.435,7.798l0.415,0.131c0.218,-0.697 0.43,-1.154 0.637,-1.368c0.207,-0.216 0.433,-0.34 0.677,-0.374c0.246,-0.035 0.781,0.077 1.605,0.334l4.27,1.333l-0.312,1l-8.479,2.742l-1.498,4.798l0.416,0.13c0.149,-0.398 0.387,-0.713 0.715,-0.948c0.228,-0.151 0.75,-0.362 1.566,-0.633l6.302,-2.053c-0.058,1.002 0.065,1.833 0.368,2.495c0.482,1.039 1.284,1.733 2.407,2.084" style="fill-rule:nonzero;"/><path d="M37.341,165.285l-3.458,-3.37l0.817,-4.759l-4.275,2.247l-4.274,-2.247l0.816,4.759l-3.457,3.37l4.779,0.695l2.136,4.329l2.137,-4.329l4.779,-0.695Z" style="fill-rule:nonzero;"/><path d="M195.732,165.98l2.138,4.33l2.136,-4.33l4.778,-0.695l-3.457,-3.37l0.816,-4.759l-4.273,2.247l-4.275,-2.247l0.817,4.759l-3.458,3.37l4.778,0.695Z" style="fill-rule:nonzero;"/><path d="M42.022,179.08c0.137,0.212 0.309,0.441 0.512,0.687c0.203,0.246 0.438,0.508 0.702,0.783c0.679,0.707 1.264,1.164 1.758,1.374c0.493,0.209 0.988,0.258 1.484,0.144c0.496,-0.112 0.929,-0.348 1.302,-0.706c0.576,-0.552 0.842,-1.259 0.799,-2.117c-0.044,-0.86 -0.498,-1.74 -1.362,-2.64c-0.464,-0.483 -0.935,-0.868 -1.413,-1.153l-3.782,3.628Zm-4.704,4.514c0.408,0.685 0.875,1.303 1.399,1.85c0.84,0.875 1.678,1.354 2.514,1.436c0.836,0.081 1.544,-0.157 2.124,-0.715c0.382,-0.366 0.65,-0.823 0.805,-1.37c0.153,-0.548 0.106,-1.153 -0.14,-1.817c-0.248,-0.664 -0.704,-1.343 -1.368,-2.035c-0.288,-0.3 -0.538,-0.552 -0.752,-0.756c-0.215,-0.203 -0.396,-0.359 -0.546,-0.466l-4.036,3.873Zm7.961,-0.335c0.51,0.823 0.768,1.556 0.773,2.201c0.005,0.897 -0.314,1.653 -0.957,2.271c-0.489,0.469 -1.107,0.764 -1.851,0.883c-0.744,0.12 -1.479,0.009 -2.202,-0.334c-0.724,-0.342 -1.616,-1.067 -2.68,-2.175l-4.457,-4.645l0.269,-0.257l0.355,0.369c0.394,0.412 0.809,0.581 1.242,0.51c0.275,-0.052 0.69,-0.342 1.24,-0.871l6.36,-6.101c0.609,-0.585 0.926,-1.024 0.952,-1.318c0.032,-0.393 -0.131,-0.776 -0.489,-1.148l-0.355,-0.371l0.269,-0.258l4.081,4.255c0.761,0.793 1.314,1.485 1.658,2.075c0.522,0.894 0.745,1.743 0.67,2.551c-0.077,0.806 -0.403,1.486 -0.979,2.039c-0.494,0.474 -1.079,0.747 -1.757,0.821c-0.677,0.074 -1.391,-0.091 -2.142,-0.497" style="fill-rule:nonzero;"/><path d="M56.356,194.676l1.406,-5.811l-5.181,3.031l3.775,2.78Zm-0.215,0.766l-4.252,-3.131l-2.023,1.184c-0.497,0.291 -0.824,0.542 -0.978,0.753c-0.124,0.168 -0.153,0.373 -0.086,0.618c0.065,0.243 0.349,0.579 0.85,1.007l-0.221,0.3l-3.458,-2.547l0.22,-0.3c0.52,0.257 0.894,0.37 1.124,0.34c0.466,-0.057 1.158,-0.358 2.078,-0.905l10.522,-6.194l0.283,0.209l-2.906,11.951c-0.233,0.962 -0.305,1.645 -0.215,2.048c0.09,0.403 0.349,0.784 0.778,1.141l-0.221,0.299l-4.333,-3.191l0.221,-0.3c0.453,0.302 0.802,0.446 1.047,0.435c0.246,-0.011 0.435,-0.105 0.566,-0.284c0.174,-0.237 0.343,-0.692 0.505,-1.364l0.499,-2.069Z" style="fill-rule:nonzero;"/><path d="M67.818,199.795c0.114,0.057 0.212,0.108 0.295,0.153c0.082,0.045 0.151,0.081 0.205,0.108c1.164,0.58 2.168,0.767 3.01,0.557c0.843,-0.208 1.458,-0.703 1.848,-1.483c0.38,-0.763 0.45,-1.501 0.211,-2.216c-0.239,-0.716 -0.752,-1.27 -1.538,-1.661c-0.348,-0.174 -0.847,-0.352 -1.498,-0.534l-2.533,5.076Zm5.539,10.599l-3.259,-1.625l-1.285,-7.769c-0.311,-0.141 -0.563,-0.259 -0.756,-0.355c-0.078,-0.038 -0.161,-0.081 -0.249,-0.129c-0.09,-0.048 -0.18,-0.099 -0.273,-0.153l-1.769,3.546c-0.384,0.768 -0.537,1.287 -0.462,1.557c0.096,0.378 0.373,0.681 0.829,0.908l0.477,0.239l-0.166,0.333l-5.23,-2.61l0.166,-0.333l0.459,0.229c0.516,0.257 0.969,0.273 1.359,0.049c0.219,-0.123 0.502,-0.533 0.849,-1.229l3.933,-7.887c0.383,-0.767 0.538,-1.286 0.462,-1.556c-0.103,-0.38 -0.384,-0.686 -0.847,-0.917l-0.459,-0.229l0.166,-0.333l4.447,2.218c1.297,0.647 2.205,1.219 2.726,1.714c0.521,0.496 0.869,1.105 1.045,1.825c0.176,0.722 0.09,1.434 -0.26,2.135c-0.375,0.75 -0.945,1.28 -1.709,1.588c-0.765,0.309 -1.717,0.32 -2.857,0.037l0.774,4.758c0.175,1.092 0.404,1.874 0.687,2.344c0.282,0.47 0.738,0.907 1.368,1.312l-0.166,0.333Z" style="fill-rule:nonzero;"/><path d="M92.874,197.609l2.193,0.474l0.309,3.617l-0.345,-0.074l-2.157,-4.017Zm1.197,13.319l-1.096,-5.877l-3.486,4.887l4.582,0.99Zm0.119,0.787l-5.162,-1.115l-1.36,1.908c-0.335,0.471 -0.53,0.833 -0.585,1.089c-0.044,0.203 0.015,0.403 0.174,0.598c0.161,0.196 0.558,0.387 1.19,0.571l-0.078,0.364l-4.199,-0.908l0.078,-0.363c0.579,0.022 0.966,-0.029 1.165,-0.15c0.402,-0.242 0.911,-0.802 1.525,-1.677l7.061,-9.96l0.344,0.074l2.245,12.094c0.181,0.972 0.395,1.624 0.642,1.956c0.248,0.331 0.639,0.571 1.177,0.721l-0.079,0.365l-5.26,-1.137l0.079,-0.363c0.536,0.087 0.914,0.077 1.134,-0.034c0.219,-0.11 0.352,-0.273 0.399,-0.489c0.062,-0.289 0.029,-0.772 -0.099,-1.453l-0.391,-2.091Z" style="fill-rule:nonzero;"/><path d="M121.848,203.916l0.466,4.625l-0.312,0.01c-0.461,-1.374 -1.089,-2.352 -1.879,-2.938c-0.79,-0.584 -1.726,-0.859 -2.806,-0.823c-0.904,0.03 -1.714,0.286 -2.43,0.77c-0.715,0.483 -1.266,1.234 -1.651,2.253c-0.385,1.019 -0.554,2.277 -0.505,3.771c0.041,1.233 0.274,2.296 0.699,3.188c0.425,0.892 1.043,1.566 1.852,2.022c0.812,0.457 1.726,0.668 2.745,0.634c0.884,-0.029 1.658,-0.244 2.323,-0.645c0.665,-0.401 1.383,-1.177 2.158,-2.331l0.318,0.192c-0.643,1.235 -1.412,2.15 -2.305,2.743c-0.892,0.592 -1.966,0.909 -3.22,0.951c-2.258,0.074 -4.036,-0.706 -5.33,-2.341c-0.966,-1.216 -1.477,-2.668 -1.533,-4.357c-0.045,-1.361 0.219,-2.62 0.791,-3.781c0.573,-1.158 1.383,-2.07 2.431,-2.732c1.049,-0.662 2.207,-1.014 3.474,-1.056c0.984,-0.032 1.965,0.178 2.939,0.628c0.287,0.139 0.489,0.206 0.61,0.202c0.182,-0.006 0.336,-0.075 0.467,-0.207c0.168,-0.186 0.284,-0.442 0.347,-0.767l0.351,-0.011Z" style="fill-rule:nonzero;"/><path d="M129.914,209.705c0.125,-0.024 0.234,-0.044 0.326,-0.06c0.093,-0.015 0.169,-0.028 0.228,-0.04c1.276,-0.257 2.182,-0.727 2.718,-1.41c0.536,-0.682 0.719,-1.451 0.547,-2.306c-0.168,-0.834 -0.566,-1.46 -1.194,-1.878c-0.628,-0.418 -1.372,-0.54 -2.233,-0.367c-0.383,0.078 -0.886,0.243 -1.512,0.5l1.12,5.561Zm10.881,4.963l-3.57,0.719l-5.786,-5.343c-0.332,0.082 -0.603,0.143 -0.814,0.185c-0.086,0.018 -0.178,0.034 -0.278,0.051c-0.099,0.017 -0.202,0.032 -0.308,0.047l0.782,3.885c0.169,0.842 0.367,1.346 0.591,1.513c0.309,0.239 0.712,0.308 1.213,0.208l0.522,-0.106l0.073,0.365l-5.73,1.154l-0.072,-0.365l0.503,-0.102c0.564,-0.113 0.932,-0.379 1.101,-0.796c0.097,-0.232 0.07,-0.729 -0.085,-1.492l-1.738,-8.639c-0.17,-0.841 -0.366,-1.345 -0.592,-1.512c-0.314,-0.238 -0.725,-0.305 -1.231,-0.204l-0.504,0.102l-0.072,-0.365l4.871,-0.98c1.421,-0.286 2.488,-0.393 3.203,-0.322c0.717,0.071 1.364,0.337 1.947,0.798c0.582,0.462 0.949,1.076 1.105,1.845c0.165,0.822 0.041,1.59 -0.374,2.303c-0.414,0.712 -1.157,1.307 -2.232,1.783l3.534,3.28c0.809,0.755 1.469,1.23 1.981,1.428c0.511,0.198 1.14,0.263 1.886,0.195l0.074,0.365Z" style="fill-rule:nonzero;"/><path d="M142.657,194.914l1.732,-0.652l2.962,2.443l-0.292,0.11l-3.325,-1.038l-1.401,2.816l-0.282,0.107l0.606,-3.786Zm0.784,5.196l1.9,5.047l2.806,-1.056c0.729,-0.274 1.173,-0.567 1.335,-0.879c0.218,-0.411 0.208,-0.988 -0.028,-1.731l0.348,-0.131l1.673,4.444l-0.348,0.132c-0.322,-0.589 -0.56,-0.955 -0.714,-1.097c-0.195,-0.178 -0.446,-0.28 -0.75,-0.309c-0.305,-0.029 -0.724,0.057 -1.258,0.258l-2.805,1.056l1.584,4.208c0.213,0.566 0.367,0.9 0.464,1.003c0.096,0.104 0.22,0.168 0.372,0.192c0.154,0.025 0.405,-0.028 0.757,-0.16l2.166,-0.816c0.722,-0.271 1.227,-0.518 1.515,-0.742c0.289,-0.223 0.528,-0.539 0.718,-0.948c0.242,-0.535 0.421,-1.272 0.533,-2.21l0.376,-0.142l0.104,3.615l-9.838,3.704l-0.132,-0.348l0.453,-0.171c0.301,-0.113 0.559,-0.292 0.775,-0.539c0.163,-0.175 0.242,-0.378 0.239,-0.605c-0.003,-0.228 -0.122,-0.653 -0.355,-1.274l-3.122,-8.294c-0.306,-0.81 -0.575,-1.279 -0.808,-1.405c-0.322,-0.166 -0.746,-0.15 -1.273,0.048l-0.451,0.17l-0.132,-0.348l9.839,-3.704l1.193,2.744l-0.367,0.137c-0.384,-0.621 -0.704,-1.028 -0.958,-1.219c-0.255,-0.19 -0.564,-0.292 -0.927,-0.306c-0.287,0 -0.747,0.12 -1.382,0.358l-3.502,1.318Z" style="fill-rule:nonzero;"/><path d="M159.076,199.665c0.343,-0.115 0.643,-0.224 0.9,-0.329c0.256,-0.104 0.469,-0.204 0.639,-0.299c0.609,-0.34 1.004,-0.869 1.183,-1.587c0.178,-0.718 0.06,-1.452 -0.359,-2.202c-0.288,-0.515 -0.661,-0.935 -1.119,-1.259c-0.457,-0.325 -0.941,-0.489 -1.449,-0.493c-0.509,-0.004 -1.01,0.131 -1.502,0.406c-0.298,0.166 -0.652,0.437 -1.057,0.809l2.764,4.954Zm0.279,0.501l1.937,3.47c0.419,0.75 0.761,1.169 1.026,1.26c0.366,0.133 0.775,0.074 1.225,-0.178l0.457,-0.255l0.181,0.325l-5.103,2.849l-0.181,-0.327l0.447,-0.249c0.504,-0.281 0.772,-0.646 0.806,-1.095c0.016,-0.246 -0.165,-0.71 -0.544,-1.389l-4.295,-7.695c-0.418,-0.75 -0.757,-1.171 -1.016,-1.264c-0.372,-0.13 -0.784,-0.07 -1.235,0.181l-0.448,0.251l-0.181,-0.326l4.366,-2.436c1.065,-0.594 1.967,-0.954 2.705,-1.077c0.737,-0.124 1.463,-0.042 2.175,0.244c0.712,0.285 1.268,0.786 1.667,1.5c0.542,0.971 0.662,1.941 0.361,2.908c-0.301,0.968 -1.039,1.777 -2.209,2.431c-0.287,0.16 -0.609,0.313 -0.966,0.458c-0.356,0.146 -0.748,0.283 -1.175,0.414" style="fill-rule:nonzero;"/><path d="M167.144,187.563l3.293,4.27l2.374,-1.83c0.615,-0.475 0.956,-0.886 1.02,-1.231c0.088,-0.457 -0.091,-1.006 -0.534,-1.647l0.295,-0.227l2.899,3.761l-0.295,0.227c-0.48,-0.469 -0.814,-0.749 -1.003,-0.841c-0.239,-0.112 -0.508,-0.136 -0.808,-0.076c-0.299,0.063 -0.675,0.267 -1.126,0.616l-2.374,1.83l2.746,3.561c0.368,0.477 0.614,0.752 0.736,0.823c0.122,0.071 0.259,0.096 0.413,0.075c0.154,-0.021 0.378,-0.146 0.676,-0.375l1.832,-1.413c0.612,-0.471 1.022,-0.855 1.233,-1.153c0.211,-0.298 0.347,-0.67 0.409,-1.116c0.076,-0.583 0.03,-1.34 -0.137,-2.27l0.32,-0.246l1.155,3.427l-8.325,6.419l-0.227,-0.295l0.382,-0.295c0.255,-0.196 0.45,-0.443 0.584,-0.742c0.105,-0.215 0.121,-0.432 0.051,-0.649c-0.069,-0.217 -0.307,-0.589 -0.712,-1.115l-5.411,-7.018c-0.529,-0.685 -0.923,-1.054 -1.184,-1.107c-0.355,-0.065 -0.755,0.074 -1.202,0.418l-0.382,0.295l-0.227,-0.295l8.324,-6.418l1.944,2.274l-0.311,0.239c-0.549,-0.482 -0.974,-0.777 -1.272,-0.885c-0.3,-0.108 -0.625,-0.116 -0.976,-0.022c-0.274,0.083 -0.68,0.333 -1.216,0.747l-2.964,2.284Z" style="fill-rule:nonzero;"/><path d="M180.554,173.967l3.398,3.274l-0.259,0.268c-0.735,-0.542 -1.404,-0.886 -2.007,-1.033c-0.603,-0.148 -1.217,-0.123 -1.845,0.073c-0.626,0.197 -1.155,0.517 -1.583,0.961c-0.484,0.503 -0.73,1.066 -0.741,1.69c-0.008,0.624 0.182,1.124 0.574,1.501c0.299,0.288 0.671,0.447 1.119,0.477c0.65,0.049 1.818,-0.198 3.507,-0.741c1.376,-0.443 2.358,-0.706 2.945,-0.788c0.586,-0.082 1.146,-0.041 1.677,0.122c0.532,0.163 0.994,0.433 1.386,0.81c0.742,0.717 1.105,1.622 1.089,2.718c-0.018,1.097 -0.465,2.099 -1.339,3.006c-0.275,0.285 -0.554,0.532 -0.84,0.742c-0.168,0.126 -0.555,0.352 -1.161,0.676c-0.605,0.324 -0.97,0.549 -1.09,0.675c-0.117,0.121 -0.172,0.251 -0.167,0.391c0.005,0.14 0.104,0.335 0.298,0.588l-0.257,0.269l-3.369,-3.246l0.258,-0.268c0.826,0.554 1.517,0.893 2.072,1.017c0.554,0.126 1.158,0.081 1.811,-0.132c0.653,-0.214 1.231,-0.582 1.734,-1.104c0.581,-0.603 0.881,-1.234 0.899,-1.892c0.019,-0.657 -0.189,-1.194 -0.623,-1.613c-0.242,-0.233 -0.55,-0.401 -0.924,-0.505c-0.374,-0.105 -0.802,-0.12 -1.286,-0.044c-0.326,0.049 -1.129,0.266 -2.409,0.653c-1.282,0.386 -2.233,0.622 -2.854,0.707c-0.623,0.086 -1.191,0.057 -1.706,-0.085c-0.515,-0.142 -0.975,-0.409 -1.38,-0.799c-0.705,-0.68 -1.052,-1.535 -1.041,-2.567c0.012,-1.032 0.42,-1.966 1.225,-2.801c0.502,-0.522 1.163,-0.952 1.982,-1.29c0.382,-0.153 0.625,-0.286 0.733,-0.397c0.121,-0.126 0.182,-0.264 0.183,-0.417c0.003,-0.151 -0.087,-0.36 -0.267,-0.628l0.258,-0.268Z" style="fill-rule:nonzero;"/></g></svg>