<?xml version="1.0" encoding="UTF-8" standalone="no"?><!DOCTYPE svg PUBLIC "-//W3C//DTD SVG 1.1//EN" "http://www.w3.org/Graphics/SVG/1.1/DTD/svg11.dtd"><svg width="100%" height="100%" viewBox="0 0 70 26" version="1.1" xmlns="http://www.w3.org/2000/svg" xmlns:xlink="http://www.w3.org/1999/xlink" xml:space="preserve" xmlns:serif="http://www.serif.com/" style="fill-rule:evenodd;clip-rule:evenodd;stroke-linecap:round;stroke-linejoin:round;stroke-miterlimit:1.5;"><g id="curl.-6"><path id="curl.-6.-end" d="M69.192,25.506c-1.495,0 -2.875,-0.494 -3.986,-1.329" style="fill:none;stroke:#000;stroke-width:0.52px;"/><path id="curl.-6.-before.-end" d="M65.207,24.177c-1.614,-1.213 -2.658,-3.143 -2.658,-5.314" style="fill:none;stroke:#000;stroke-width:0.52px;"/><path id="curl.-6.-top" d="M62.549,18.863c0,-1.466 1.191,-2.657 2.658,-2.657c1.466,0 2.657,1.191 2.657,2.657" style="fill:none;stroke:#000;stroke-width:0.52px;"/><path id="curl.-6.-start" d="M67.864,18.863c0,3.666 -2.977,6.643 -6.644,6.643" style="fill:none;stroke:#000;stroke-width:0.52px;"/></g><path id="curve.-bottom.-right.-end" d="M61.22,25.506c-3.428,0 -6.625,-1.001 -9.312,-2.726" style="fill:none;stroke:#000;stroke-width:0.52px;"/><path id="curve.-bottom.-right.-start" d="M51.908,22.78c-4.786,-3.072 -7.96,-8.442 -7.96,-14.546" style="fill:none;stroke:#000;stroke-width:0.52px;"/><path id="eye.-right.-top" d="M43.948,8.234c0,-4.399 3.573,-7.972 7.972,-7.972c4.4,0.001 7.972,3.573 7.972,7.972" style="fill:none;stroke:#000;stroke-width:0.52px;"/><path id="head" d="M59.892,8.234c0,9.533 -7.739,17.272 -17.272,17.272c-9.533,0 -17.272,-7.739 -17.272,-17.272" style="fill:none;stroke:#000;stroke-width:0.52px;"/><path id="eye.-left.-top" d="M25.348,8.234c0,-4.399 3.572,-7.972 7.971,-7.972c4.4,0.001 7.972,3.573 7.972,7.972" style="fill:none;stroke:#000;stroke-width:0.52px;"/><path id="curve.-bottom.-left.-end" d="M41.291,8.234c0,6.111 -3.18,11.484 -7.973,14.555" style="fill:none;stroke:#000;stroke-width:0.52px;"/><path id="curve.-bottom.-left.-start" d="M33.318,22.789c-2.685,1.719 -5.876,2.717 -9.299,2.717" style="fill:none;stroke:#000;stroke-width:0.52px;"/><g id="curl.-3"><path id="curl.-3.-end" d="M24.178,25.506c-3.667,0 -6.644,-2.977 -6.644,-6.643" style="fill:none;stroke:#000;stroke-width:0.52px;"/><path id="curl.-3.-top" d="M17.534,18.863c0,-1.466 1.191,-2.657 2.658,-2.657c1.466,0 2.657,1.191 2.657,2.657" style="fill:none;stroke:#000;stroke-width:0.52px;"/><path id="curl.-3.-start" d="M22.849,18.863c0,3.666 -2.977,6.643 -6.643,6.643" style="fill:none;stroke:#000;stroke-width:0.52px;"/></g><g id="curl.-2"><path id="curl.-2.-end" d="M16.206,25.506c-3.667,0 -6.643,-2.977 -6.643,-6.643" style="fill:none;stroke:#000;stroke-width:0.52px;"/><path id="curl.-2.-top" d="M9.563,18.863c-0.001,-1.466 1.19,-2.657 2.657,-2.657c1.467,0 2.657,1.191 2.657,2.657" style="fill:none;stroke:#000;stroke-width:0.52px;"/><path id="curl.-2.-start" d="M14.877,18.863c0,3.666 -2.977,6.643 -6.643,6.643" style="fill:none;stroke:#000;stroke-width:0.52px;"/></g><g id="curl.-1"><path id="curl.-1.-end" d="M8.234,25.506c-3.666,0 -6.643,-2.977 -6.643,-6.643" style="fill:none;stroke:#000;stroke-width:0.52px;"/><path id="curl.-1.-top" d="M1.591,18.863c0,-1.466 1.191,-2.657 2.657,-2.657c1.467,0 2.657,1.191 2.657,2.657" style="fill:none;stroke:#000;stroke-width:0.52px;"/><path id="curl.-1.-right" d="M6.905,18.863c0,2.171 -1.044,4.101 -2.657,5.314" style="fill:none;stroke:#000;stroke-width:0.52px;"/><path id="curl.-1.-start" d="M4.248,24.177c-1.11,0.835 -2.491,1.329 -3.986,1.329" style="fill:none;stroke:#000;stroke-width:0.52px;"/></g></svg>